<?xml version="1.0" standalone="no"?><svg xmlns="http://www.w3.org/2000/svg" viewBox="0 0 1440 320"><path fill="#5000ca" fill-opacity="1" d="M0,224L20,192C40,160,80,96,120,106.7C160,117,200,203,240,234.7C280,267,320,245,360,234.7C400,224,440,224,480,208C520,192,560,160,600,138.7C640,117,680,107,720,128C760,149,800,203,840,213.3C880,224,920,192,960,186.7C1000,181,1040,203,1080,176C1120,149,1160,75,1200,74.7C1240,75,1280,149,1320,192C1360,235,1400,245,1420,250.7L1440,256L1440,0L1420,0C1400,0,1360,0,1320,0C1280,0,1240,0,1200,0C1160,0,1120,0,1080,0C1040,0,1000,0,960,0C920,0,880,0,840,0C800,0,760,0,720,0C680,0,640,0,600,0C560,0,520,0,480,0C440,0,400,0,360,0C320,0,280,0,240,0C200,0,160,0,120,0C80,0,40,0,20,0L0,0Z"></path></svg>